
Release info:

General
Format                                   : Matroska
Format version                           : Version 2
File size                                : 686 MiB
Duration                                 : 2h 20mn
Overall bit rate                         : 681 Kbps
Movie name                               : Matru Ki Bijlee ka Mandola

Video
ID                                       : 1
Format                                   : MPEG-4 Visual
Format profile                           : Advanced Simple@L5
Format settings, BVOP                    : Yes
Format settings, QPel                    : No
Format settings, GMC                     : No warppoints
Format settings, Matrix                  : Default (H.263)
Codec ID                                 : V_MS/VFW/FOURCC / XVID
Codec ID/Hint                            : XviD
Duration                                 : 2h 20mn
Bit rate                                 : 588 Kbps
Width                                    : 640 pixels
Height                                   : 256 pixels
Display aspect ratio                     : 2.500
Frame rate mode                          : Constant
Frame rate                               : 25.000 fps
Color space                              : YUV
Chroma subsampling                       : 4:2:0
Bit depth                                : 8 bits
Scan type                                : Progressive
Compression mode                         : Lossy
Bits/(Pixel*Frame)                       : 0.144
Stream size                              : 591 MiB (86%)
Title                                    : Matru Ki Bijlee ka Mandola
Language                                 : Hindi
Default                                  : Yes
Forced                                   : No

Audio
ID                                       : 2
Format                                   : MPEG Audio
Format version                           : Version 1
Format profile                           : Layer 3
Mode                                     : Joint stereo
Mode extension                           : MS Stereo
Muxing mode                              : Header stripping
Codec ID                                 : A_MPEG/L3
Codec ID/Hint                            : MP3
Duration                                 : 1h 5mn
Bit rate mode                            : Constant
Bit rate                                 : 80.0 Kbps
Channel(s)                               : 2 channels
Sampling rate                            : 32.0 KHz
Compression mode                         : Lossy
Stream size                              : 37.8 MiB (6%)
Title                                    : Matru Ki Bijlee ka Mandola
Language                                 : Hindi
Default                                  : Yes
Forced                                   : No



Source:
credit to original movie ripper DDR (Thanks)

IMDB Info:

Harry is an industrialist who loves his daughter Bijlee, and the bond they share with Harry's man friday, Matru. Bijlee's plan to wed the son of a politician, however, brings twists and turns in the lives of Matru, Bijlee and Mandola.

Director: Vishal Bhardwaj
Writers: Vishal Bhardwaj (dialogue), Vishal Bhardwaj (screenplay), 
Stars: Pankaj Kapur, Imran Khan and Anushka Sharma 

Genres: Comedy
 
http://www.imdb.com/title/tt2106537/

Screen Shot:
 
http://www.shotpix.com/images/21352714037612869028.png 
http://www.shotpix.com/images/31589933876410232847.png 
http://www.shotpix.com/images/54505965107341540384.png 
http://www.shotpix.com/images/51816034803945429611.png 
http://www.shotpix.com/images/95597042632710390491.png 
http://www.shotpix.com/images/41318545342815049110.png